{"title":"Cars 2 2011 BRrip 1080p Xvid AC3 LKRG","uid":10944338,"size":4501931972,"categoryP":"video","categoryS":"hd___movies","magnet":"?xt=urn:btih:7e42690e07bc289f5c03f6b87198513c78297162&amp;dn=Cars+2+2011+BRrip+1080p+Xvid+AC3+LKRG&amp;tr=udp%3A%2F%2Ftracker.openbittorrent.com%3A80&amp;tr=udp%3A%2F%2Fopen.demonii.com%3A1337&amp;tr=udp%3A%2F%2Ftracker.coppersurfer.tk%3A6969&amp;tr=udp%3A%2F%2Fexodus.desync.com%3A6969","seeders":4,"leechers":2,"uploader":".BONE.","files":2,"time":1409587419,"description":"\nPLOT\n\nStar race car Lightning McQueen and his pal Mater head overseas to compete in the World Grand Prix race. But the road to the championship becomes\nrocky as Mater gets caught up in an intriguing adventure of his own: international espionage.\n\nSource ..........: BluRay\nRuntime ..........: 1h 46mn\nFile Size ........: 4.19 GB\nResolution .......: 1920 x 800 &lt;a href=&quot;\nhttp://www.imdb.com/title/tt1216475/&quot; rel=&quot;nofollow&quot; target=&quot;_NEW&quot;&gt;\nhttp://www.imdb.com/title/tt1216475/&lt;/a&gt;\nGenre ............: Animation,Adventure,Comedy\nLanguage .........: English\nSubtitles ........: None\nComplete name : Cars 2 2011 BDRip 1080p Xvid AC3 LKRGCars2_LKRG.avi\nFormat : AVI\nFormat/Info : Audio Video Interleave\nFormat profile : OpenDML\nFile size : 4.19 GiB\nDuration : 1h 46mn\nOverall bit rate : 5 648 Kbps\nWriting application : VirtualDubMod 1.5.10.2 (build 2540/release)\nWriting library : VirtualDubMod build 2540/release\nVideo\nID : 0\nFormat : MPEG-4 Visual\nFormat profile : Advanced Simple@L5\nFormat settings, BVOP : 2\nFormat settings, QPel : No\nFormat settings, GMC : No warppoints\nFormat settings, Matrix : Default (H.263)\nMuxing mode : Packed bitstream\nCodec ID : XVID\nCodec ID/Hint : XviD\nDuration : 1h 46mn\nBit rate : 5 191 Kbps\nWidth : 1 920 pixels\nHeight : 800 pixels\nDisplay aspect ratio : 2.40:1\nFrame rate : 23.976 fps\nColor space : YUV\nChroma subsampling : 4:2:0\nBit depth : 8 bits\nScan type : Progressive\nCompression mode : Lossy\nBits/(Pixel*Frame) : 0.141\nStream size : 3.85 GiB (92%)\nWriting library : XviD 1.2.1 (UTC 2008-12-04)\nAudio\nID : 1\nFormat : AC-3\nFormat/Info : Audio Coding 3\nMode extension : CM (complete main)\nFormat settings, Endianness : Big\nCodec ID : 2000\nDuration : 1h 46mn\nBit rate mode : Constant\nBit rate : 448 Kbps\nChannel(s) : 6 channels\nChannel positions : Front: L C R, Side: L R, LFE\nSampling rate : 48.0 KHz\nBit depth : 16 bits\nCompression mode : Lossy\nStream size : 341 MiB (8%)\nAlignment : Split accross interleaves\nInterleave, duration : 42 ms (1.00 video frame)\nInterleave, preload duration : 500 ms\n &lt;a href=&quot;\nhttp://i.imgur.com/30oapZg.jpg&quot; rel=&quot;nofollow&quot; target=&quot;_NEW&quot;&gt;\nhttp://i.imgur.com/30oapZg.jpg&lt;/a&gt; &lt;a href=&quot;\nhttp://i.imgur.com/mt6Bmot.jpg&quot; rel=&quot;nofollow&quot; target=&quot;_NEW&quot;&gt;\nhttp://i.imgur.com/mt6Bmot.jpg&lt;/a&gt; &lt;a href=&quot;\nhttp://i.imgur.com/9mC53Q8.jpg&quot; rel=&quot;nofollow&quot; target=&quot;_NEW&quot;&gt;\nhttp://i.imgur.com/9mC53Q8.jpg&lt;/a&gt; &lt;a href=&quot;\nhttp://i.imgur.com/UbDiYty.jpg&quot; rel=&quot;nofollow&quot; target=&quot;_NEW&quot;&gt;\nhttp://i.imgur.com/UbDiYty.jpg&lt;/a&gt; &lt;a href=&quot;\nhttp://i.imgur.com/STljDUP.jpg&quot; rel=&quot;nofollow&quot; target=&quot;_NEW&quot;&gt;\nhttp://i.imgur.com/STljDUP.jpg&lt;/a&gt; &lt;a href=&quot;\nhttp://i.imgur.com/gCvF89z.jpg&quot; rel=&quot;nofollow&quot; target=&quot;_NEW&quot;&gt;\nhttp://i.imgur.com/gCvF89z.jpg&lt;/a&gt;\n","torrent":{"xt":"urn:btih:7e42690e07bc289f5c03f6b87198513c78297162","amp;dn":"Cars+2+2011+BRrip+1080p+Xvid+AC3+LKRG","amp;tr":["udp%3A%2F%2Ftracker.openbittorrent.com%3A80","udp%3A%2F%2Fopen.demonii.com%3A1337","udp%3A%2F%2Ftracker.coppersurfer.tk%3A6969","udp%3A%2F%2Fexodus.desync.com%3A6969"],"infoHash":"7e42690e07bc289f5c03f6b87198513c78297162","infoHashBuffer":{"type":"Buffer","data":[126,66,105,14,7,188,40,159,92,3,246,184,113,152,81,60,120,41,113,98]},"announce":[],"urlList":[]}}